# xmcd
#
# Track frame offsets:
#	150
#	13530
#	27999
#	41525
#	55235
#	66137
#	79512
#	94812
#	106727
#	121367
#	134702
#	145427
#
# Disc length: 2111 seconds
#
# Revision: 0
# Processed by: cddbd v1.5.2PL0 Copyright (c) Steve Scherf et al.
# Submitted via: EasyCDDAExtractor 16.0.6.1
#
DISCID=a1083d0c
DTITLE=Καββαδίας Απόστολος - Τα σουξέ-Απ. Καββαδίας
DYEAR=1981
DGENRE=Λαϊκή
TTITLE0=Χέρια τιμημένα [Σούλη Διονυσίου]
TTITLE1=Ας ήταν για λίγο, να φύγω [Χαρ. Βασιλειάδη-Στ. Κάξου]
TTITLE2=Με τον άνθρωπο, που βγήκες, ήταν φίλος μου [Σούλη Διονυσίου]
TTITLE3=Δεν είμαι ρούχο, για να μ' αλλάξεις [Ιωάν. Κουμουνδούρου-Στ. Κάξου]
TTITLE4=Με κορόϊδευες [Σούλη Διονυσίου]
TTITLE5=Ο εργένης [Κώστα Αλεξάκη-Στ. Κάξου]
TTITLE6=Σε αδίκησα καλή μου [Στ. Κάξου]
TTITLE7=Το λάθος [Σούλη Διονυσίου]
TTITLE8=Μ' έχει κάψει [Χαρ. Βασιλειάδη-Ευάγγ. Γρυπάρη]
TTITLE9=Αν βαρέθηκες [Γιάννη Πολυκανδριώτη]
TTITLE10=Σε αδίκησα, που σε μίσησα [Σούλη Διονυσίου]
TTITLE11=Απόψε θα κλάψουνε μάτια [Στ. Κάξου]
EXTD=
EXTT0=
EXTT1=
EXTT2=
EXTT3=
EXTT4=
EXTT5=
EXTT6=
EXTT7=
EXTT8=
EXTT9=
EXTT10=
EXTT11=
PLAYORDER=
